<?xml version="1.0" encoding="UTF-8" standalone="no"?>
<svg
   id="logo"
   viewBox="0 0 474.23001 53.32"
   version="1.1"
   sodipodi:docname="fortinet.svg"
   inkscape:version="1.4.2 (f4327f4, 2025-05-13)"
   xmlns:inkscape="http://www.inkscape.org/namespaces/inkscape"
   xmlns:sodipodi="http://sodipodi.sourceforge.net/DTD/sodipodi-0.dtd"
   xmlns="http://www.w3.org/2000/svg"
   xmlns:svg="http://www.w3.org/2000/svg">
  <sodipodi:namedview
     id="namedview2"
     pagecolor="#ffffff"
     bordercolor="#000000"
     borderopacity="0.25"
     inkscape:showpageshadow="2"
     inkscape:pageopacity="0.0"
     inkscape:pagecheckerboard="0"
     inkscape:deskcolor="#d1d1d1"
     inkscape:zoom="2.2452086"
     inkscape:cx="147.42505"
     inkscape:cy="125.8235"
     inkscape:window-width="3840"
     inkscape:window-height="2054"
     inkscape:window-x="-11"
     inkscape:window-y="-11"
     inkscape:window-maximized="1"
     inkscape:current-layer="logo" />
  <defs
     id="defs1">
    <style
       id="style1">.cls-1{fill:#fff;}.cls-2{fill:#da291c;}.cls-3{fill:none;}</style>
  </defs>
  <rect
     class="cls-3"
     width="474.23001"
     height="53.32"
     id="rect1"
     x="0"
     y="0"
     style="stroke-width:0.521706" />
  <g
     id="g2"
     transform="translate(-53.32,-53.31)">
    <path
       class="cls-1"
       d="M 325.61,64.73 V 53.32 h 13.02 v 53.32 H 325.61 Z M 268.17,53.32 h 50.29 v 11.45 h -23.57 v 41.87 H 281.87 V 64.77 H 268.16 V 53.32 Z m 259.38,0 v 11.45 h -23.57 v 41.87 H 490.96 V 64.77 H 477.25 V 53.32 h 50.29 z m -474.23,0 h 56.39 V 64.77 H 66.34 v 11.4 h 36.99 V 87.62 H 66.34 v 19.01 H 53.32 V 53.31 Z m 364.3,0 h 52.49 v 11.45 h -39.47 v 9.48 h 32.39 V 85.7 h -32.39 v 9.48 h 40.18 v 11.45 h -53.2 V 53.31 Z m -10.06,15.07 v 38.25 H 394.54 V 68.39 c 0,-2 -1.62,-3.61 -3.61,-3.61 h -29.22 c 0,0 0,41.86 0,41.86 H 348.69 V 53.32 h 43.8 c 8.32,0 15.07,6.75 15.07,15.07 z M 248.13,53.32 h -44.52 c 0,0 0,53.32 0,53.32 h 13.02 V 87.61 h 29.3 c 1.57,0.05 2.83,1.34 2.83,2.93 v 16.11 h 13.02 V 90.4 c 0,-2.85 -1.56,-5.33 -3.88,-6.64 2.82,-2.62 4.59,-6.36 4.59,-10.51 v -5.56 c 0,-7.93 -6.43,-14.35 -14.35,-14.35 z m 1.34,19.89 c 0,1.63 -1.32,2.95 -2.95,2.95 H 216.63 V 64.77 l 29.89,-0.03 c 1.63,0 2.95,1.32 2.95,2.95 v 5.54 z"
       id="path1" />
    <path
       class="cls-2"
       d="M 193.56,73.07 V 86.91 H 172.03 V 73.07 Z m -48.96,33.58 v 0 c 0,0 21.53,0 21.53,0 v 0 -13.84 H 144.6 v 13.83 z m 48.95,-41.73 c 0,-6.4 -5.19,-11.6 -11.6,-11.6 h -9.93 v 13.84 h 21.52 V 64.92 Z M 144.6,53.33 v 13.84 h 21.53 v -13.84 0 z m -27.43,19.74 v 0 13.84 H 138.7 V 73.07 Z m 54.86,33.58 h 9.93 c 6.4,0 11.6,-5.19 11.6,-11.6 v -2.24 h -21.52 v 13.84 z m -54.86,-11.6 c 0,6.4 5.19,11.6 11.6,11.6 h 9.93 c 0,0 0,-13.83 0,-13.83 h -21.53 v 2.24 z m 0,-30.13 v 2.24 H 138.7 V 53.32 h -9.93 c -6.4,0 -11.6,5.19 -11.6,11.6 z"
       id="path2" />
  </g>
</svg>
