<?xml version="1.0" standalone="no"?>
<!DOCTYPE svg PUBLIC "-//W3C//DTD SVG 20010904//EN"
 "http://www.w3.org/TR/2001/REC-SVG-20010904/DTD/svg10.dtd">
<svg version="1.0" xmlns="http://www.w3.org/2000/svg"
 width="200.000000pt" height="200.000000pt" viewBox="0 0 200.000000 200.000000"
 preserveAspectRatio="xMidYMid meet">
<metadata>
Created by potrace 1.11, written by Peter Selinger 2001-2013
</metadata>
<g transform="translate(0.000000,200.000000) scale(0.100000,-0.100000)"
fill="#000000" stroke="none">
<path d="M868 1855 c-2 -2 -102 -21 -358 -69 -193 -35 -304 -56 -305 -59 -10
-10 -52 -102 -71 -154 -60 -158 -81 -395 -50 -554 87 -453 435 -791 887 -864
74 -11 267 -12 319 -1 14 3 50 11 80 17 176 36 367 142 512 286 l48 47 1 126
c2 366 0 569 -6 600 -8 46 -54 112 -85 121 -39 11 -846 10 -893 0 -23 -6 -104
-22 -180 -36 -77 -15 -146 -29 -155 -33 -15 -5 92 123 209 253 104 115 159
183 167 205 12 35 -4 87 -31 101 -20 11 -82 21 -89 14z m-360 -387 c-79 -88
-160 -179 -180 -202 -55 -61 -72 -97 -64 -137 8 -42 46 -68 96 -64 19 2 100
15 180 30 80 15 156 29 170 31 14 2 36 7 50 9 14 3 39 8 55 11 17 3 64 12 105
20 41 8 78 14 83 14 4 0 7 -119 7 -265 l0 -265 95 0 95 0 0 265 c0 258 1 265
20 266 11 0 50 1 88 1 l67 1 2 -219 c1 -120 2 -241 2 -267 l1 -48 93 3 92 3 2
240 c0 132 2 251 2 265 1 24 3 25 73 23 40 -1 80 -2 88 -2 13 -1 15 -47 15
-362 l0 -361 -32 -27 c-56 -46 -178 -111 -267 -142 -307 -105 -631 -54 -896
142 -181 133 -304 321 -366 559 -20 77 -28 283 -13 355 5 28 11 60 14 73 8 47
36 132 43 133 4 0 14 2 22 4 8 2 29 7 45 10 65 12 242 45 275 50 19 3 36 8 39
11 2 2 13 4 23 4 13 0 -25 -49 -124 -162z"/>
</g>
</svg>
